<?xml version="1.0" standalone="no"?><!DOCTYPE svg PUBLIC "-//W3C//DTD SVG 1.1//EN" "http://www.w3.org/Graphics/SVG/1.1/DTD/svg11.dtd"><svg t="1744966318266" class="icon" viewBox="0 0 1024 1024" version="1.1" xmlns="http://www.w3.org/2000/svg" p-id="1547" xmlns:xlink="http://www.w3.org/1999/xlink" width="200" height="200"><path d="M896 234.666667H128c-46.933333 0-85.333333 38.4-85.333333 85.333333v341.333333h938.666666V320c0-46.933333-38.4-85.333333-85.333333-85.333333z" fill="#4CAF50" p-id="1548"></path><path d="M42.666667 661.333333v85.333334c0 46.933333 38.4 85.333333 85.333333 85.333333h362.666667v-106.666667c0-12.8 8.533333-21.333333 21.333333-21.333333s21.333333 8.533333 21.333333 21.333333v106.666667h362.666667c46.933333 0 85.333333-38.4 85.333333-85.333333v-85.333334H42.666667z" fill="#37474F" p-id="1549"></path><path d="M149.333333 704h42.666667v128H149.333333zM234.666667 704h42.666666v128h-42.666666zM320 704h42.666667v128h-42.666667zM405.333333 704h42.666667v128h-42.666667zM576 704h42.666667v128h-42.666667zM661.333333 704h42.666667v128h-42.666667zM746.666667 704h42.666666v128h-42.666666zM832 704h42.666667v128h-42.666667z" fill="#FF9800" p-id="1550"></path><path d="M426.666667 362.666667h170.666666v213.333333h-170.666666zM682.666667 362.666667h170.666666v213.333333h-170.666666zM170.666667 362.666667h170.666666v213.333333H170.666667z" fill="#37474F" p-id="1551"></path></svg>